<svg width="64" height="64" viewBox="0 0 64 64" fill="none" xmlns="http://www.w3.org/2000/svg">
<g id="tshirt-_1_" clip-path="url(#clip0_2_241)">
<g id="Group">
<path id="Vector" d="M16.875 2.6125C13.0625 4.0375 9.625 5.3625 9.25 5.5625C8.2375 6.075 7.125 7.25 6.6 8.375C6.0125 9.6125 0 27.7125 0 28.25C0 29.375 0.9375 30.7125 1.9375 30.9875C2.2 31.05 4.7875 31.3 7.7 31.5125L13 31.925V46.125C13 58.5375 13.025 60.35 13.1875 60.5875C13.575 61.1375 18.5625 62.5625 22.2875 63.175C25.925 63.7875 27.7625 63.925 32.0625 63.925C36.3625 63.925 38.3875 63.7625 41.875 63.175C45.5 62.5625 50.4375 61.125 50.8125 60.5875C50.975 60.35 51 58.625 51 46.125V31.9375L56.2875 31.525C59.1875 31.3 61.7875 31.0625 62.0625 30.9875C63.0625 30.7125 64 29.3875 64 28.2375C64 28.0125 62.5625 23.5125 60.8125 18.25C58.4625 11.2125 57.5 8.475 57.15 7.8875C56.5875 6.9375 55.5875 5.9875 54.6375 5.5125C54.25 5.3125 50.8375 4 47.05 2.575L40.175 -7.6741e-07H31.9875H23.8125L16.875 2.6125ZM38.875 2.25C38.875 2.6125 38.3375 4.0125 37.95 4.6875C37.125 6.1 35.2875 7.4125 33.6125 7.8125C31.3 8.35 28.8125 7.6625 27.125 5.9875C26.3 5.175 25.8375 4.4375 25.4125 3.2875C24.8875 1.85 24.1125 2 32 2C38.7375 2 38.875 2 38.875 2.25ZM23.3 3.25C23.4125 3.7 23.7375 4.5375 24.025 5.125C24.45 5.975 24.775 6.4 25.625 7.25C26.825 8.45 27.85 9.1 29.3125 9.5875C30.2 9.8875 30.5 9.925 32 9.925C33.5 9.925 33.8 9.8875 34.6875 9.5875C36.15 9.1 37.175 8.45 38.375 7.25C39.225 6.4 39.55 5.975 39.975 5.125C40.2625 4.5375 40.5875 3.6875 40.7 3.2375L40.9 2.4125L41.8 2.75C42.3125 2.95 42.7 3.175 42.725 3.2875C42.8 3.65 42.025 5.6375 41.4125 6.65C38.6125 11.3375 32.6625 13.2625 27.6625 11.1C24.8625 9.875 22.6 7.4375 21.6 4.5625C21.4 3.975 21.25 3.4 21.275 3.2875C21.3 3.175 21.675 2.95 22.1875 2.75C22.675 2.5625 23.075 2.425 23.075 2.425C23.0875 2.4375 23.1875 2.8 23.3 3.25ZM19.6 4.85C20.8 8.8125 23.9 11.975 27.8875 13.3C29.5875 13.8625 30.9375 14.05 32.675 13.9625C35.05 13.8375 37.225 13.125 39.175 11.825C41.6375 10.1875 43.525 7.675 44.3875 4.875C44.55 4.3625 44.6875 3.9125 44.7 3.9C44.7625 3.8125 53.575 7.175 54 7.4375C54.5625 7.7875 55.3 8.6125 55.6 9.2125C55.7375 9.475 57.2375 13.8625 58.9375 18.975C61.0875 25.425 62 28.35 61.95 28.5625C61.9125 28.725 61.7625 28.925 61.6375 29C61.425 29.1 52.45 29.875 51.375 29.875H51V26.25V22.6125L50.6875 22.3125C50.2875 21.9 49.7125 21.9 49.3125 22.3125L49 22.6125V40.975V59.3375L47.725 59.725C44.625 60.675 41.5 61.3 37.85 61.7125C35.175 62.0125 28.825 62.0125 26.15 61.7125C22.525 61.3 19.6875 60.7375 16.5375 59.8L15 59.3375V40.975V22.6125L14.675 22.2875C14.4125 22.025 14.275 21.9875 13.9 22.05C13 22.1875 13 22.2125 13 26.2625V29.875H12.6625C11.6125 29.875 2.5625 29.1 2.3625 29C2.2375 28.925 2.0875 28.725 2.05 28.5625C2 28.35 2.9125 25.425 5.0625 18.975C6.7625 13.8625 8.2625 9.475 8.4 9.2125C8.7375 8.5375 9.575 7.65 10.1875 7.3375C10.6875 7.075 18.95 3.9125 19.1875 3.8875C19.2625 3.8875 19.45 4.3125 19.6 4.85Z" fill="#C92071"/>
</g>
</g>
<defs>
<clipPath id="clip0_2_241">
<rect width="64" height="64" fill="white"/>
</clipPath>
</defs>
</svg>
